<?xml version="1.0" encoding="UTF-8"?><svg id="Layer_1" xmlns="http://www.w3.org/2000/svg" xmlns:xlink="http://www.w3.org/1999/xlink" viewBox="0 0 453.28 453.28"><defs><style>.cls-1{fill:none;}.cls-2{fill:#06cbf6;}.cls-3{fill:#009550;}.cls-4{fill:url(#linear-gradient-8);}.cls-5{fill:url(#linear-gradient-7);}.cls-6{fill:url(#linear-gradient-5);}.cls-7{fill:url(#linear-gradient-6);}.cls-8{fill:url(#linear-gradient-9);}.cls-9{fill:url(#linear-gradient-4);}.cls-10{fill:url(#linear-gradient-3);}.cls-11{fill:url(#linear-gradient-2);}.cls-12{fill:#00863f;}.cls-13{fill:#00983e;}.cls-14{fill:url(#linear-gradient);}.cls-15{clip-path:url(#clippath-11);}.cls-16{clip-path:url(#clippath-10);}.cls-17{clip-path:url(#clippath-12);}.cls-18{fill:#1e120d;}.cls-19{clip-path:url(#clippath-1);}.cls-20{clip-path:url(#clippath-3);}.cls-21{clip-path:url(#clippath-4);}.cls-22{clip-path:url(#clippath-2);}.cls-23{clip-path:url(#clippath-7);}.cls-24{clip-path:url(#clippath-6);}.cls-25{clip-path:url(#clippath-9);}.cls-26{clip-path:url(#clippath-8);}.cls-27{clip-path:url(#clippath-5);}.cls-28{fill:url(#linear-gradient-10);}.cls-29{fill:#009a37;}.cls-30{fill:#97cc1a;}.cls-31{fill:#666565;}.cls-32{fill:#2ac64b;}.cls-33{clip-path:url(#clippath);}.cls-34{fill:#008a5a;}</style><clipPath id="clippath"><rect class="cls-1" width="453.28" height="453.28"/></clipPath><clipPath id="clippath-1"><path class="cls-1" d="M321.58,50.54c2.98.85,5.8,1.68,8.44,2.49-11.28-14.31-25.12-24.61-34.37-27.94,0,0,13.93,8.36,25.93,25.45M164.79,30.97c2.56,1.83,6.07,4.25,10.31,7.06,14.8-21.13,32.11-27.27,33-27.57-14.39,2.88-29.81,9.97-43.31,20.51M281.15,41.5c8.49,1.4,16.55,3.05,23.98,4.79-16.16-19.08-38.77-31.73-59.29-35.84.93.32,20.07,7.11,35.31,31.04M226.72,10.44s-17.88,3.71-28.86,29.61c3.67-.63,7.44-1.14,11.33-1.53,15.64-1.6,31.26-1.45,46.14-.22-11.03-24.33-28.1-27.86-28.1-27.86h-.5Z"/></clipPath><linearGradient id="linear-gradient" x1="-147.2" y1="603.17" x2="-146.6" y2="603.17" gradientTransform="translate(148127.44 36045.98) rotate(90) scale(245.17)" gradientUnits="userSpaceOnUse"><stop offset="0" stop-color="#0288f7"/><stop offset="1" stop-color="#2ee2bd"/></linearGradient><clipPath id="clippath-2"><rect class="cls-1" width="453.28" height="453.28"/></clipPath><clipPath id="clippath-3"><path class="cls-1" d="M157.58,213.84c3.53,7.31,6.91,13.83,9.81,19.28,4.98,9.32,9.71,17.24,14.59,24.45,1.41-4.94,3.17-10.15,5.37-15.55-3.79-8.69-7.59-18.02-11.2-27.75-7.86-21.12-14.84-44.1-18.75-66.41-10.38-7.61-20.13-13.52-28.61-18.04,4.86,30.04,17.62,60.97,28.79,84.03"/></clipPath><linearGradient id="linear-gradient-2" x1="-147.34" y1="602.81" x2="-146.74" y2="602.81" gradientTransform="translate(-96770.22 -23439.34) rotate(-90) scale(160.79)" gradientUnits="userSpaceOnUse"><stop offset="0" stop-color="#cb1918"/><stop offset=".39" stop-color="#a2183d"/><stop offset=".75" stop-color="#902869"/><stop offset="1" stop-color="#73358a"/></linearGradient><clipPath id="clippath-4"><path class="cls-1" d="M140.98,213.46c2,3.49,4.08,7.01,6.24,10.56,10.09,16.54,21.74,31.82,32.11,44.23.31-1.51.66-3.06,1.06-4.63-4.2-5.76-8.29-11.63-11.81-17.06-5.05-7.77-12.36-19.04-19.97-32.91-13.05-23.79-26.97-55.22-31.8-89.76-4.11-1.87-7.66-3.31-10.56-4.4,4.17,30.97,16.01,61.36,34.73,93.98"/></clipPath><linearGradient id="linear-gradient-3" x1="-147.34" y1="602.93" x2="-146.74" y2="602.93" gradientTransform="translate(-96805.1 -23434.04) rotate(-90) scale(160.8)" xlink:href="#linear-gradient-2"/><clipPath id="clippath-5"><path class="cls-1" d="M195.07,191.18c1.31,7.82,2.84,15.77,4.5,23.61.16.75.32,1.49.48,2.24,3.31-5.36,7.08-10.79,11.35-16.23-3.96-5.01-8.06-9.92-12.28-14.72-1.95-2.21-3.9-4.35-5.87-6.43.57,3.84,1.17,7.68,1.83,11.52"/></clipPath><linearGradient id="linear-gradient-4" x1="-147.34" y1="602.7" x2="-146.74" y2="602.7" gradientTransform="translate(-96708.91 -23455.85) rotate(-90) scale(160.8)" xlink:href="#linear-gradient-2"/><clipPath id="clippath-6"><rect class="cls-1" width="453.28" height="453.28"/></clipPath><clipPath id="clippath-7"><path class="cls-1" d="M312.25,200.38c-9.9,19.98-20.31,36.03-26.89,46.16-7.59,11.69-17.82,25.38-25.92,35.86.29.77.58,1.5.85,2.18,12.55-13.67,31.26-35.7,46.43-60.58,3.8-6.24,7.37-12.4,10.68-18.48.35-.63.69-1.26,1.03-1.9-1.67-1.75-3.4-3.52-5.17-5.3-.34.69-.67,1.37-1.01,2.05M289.68,177.82c-9.62,34.73-24.26,68.37-35.86,91.56,1.26,2.76,2.4,5.32,3.41,7.68,10.71-12.74,19.53-25.64,29.32-43.94,5.38-10.08,12.35-23.81,18.99-39.44l.88-2.07c-5.54-5.35-11.19-10.56-16.34-15.21l-.39,1.43ZM222.67,187.73c-4.11,4.35-7.85,8.72-11.27,13.07,14.92,18.86,26.02,36.78,34.05,51.77,2.92-11.28,5.95-23.76,8.65-36.55,1.76-8.25,3.37-16.61,4.76-24.85,1.94-11.5,3.56-22.99,4.79-34.29-14.19,7.4-28.3,17.39-40.99,30.85"/></clipPath><linearGradient id="linear-gradient-5" x1="-146.98" y1="602.69" x2="-146.37" y2="602.69" gradientTransform="translate(-18730.07 78297.74) rotate(-180) scale(129.55)" gradientUnits="userSpaceOnUse"><stop offset="0" stop-color="#add816"/><stop offset="1" stop-color="#dbd704"/></linearGradient><clipPath id="clippath-8"><path class="cls-1" d="M236.63,299.6c7.82-8.11,14.52-15.3,20.6-22.55-1.01-2.35-2.15-4.92-3.41-7.68-8.21,16.43-14.91,27.61-17.19,30.22"/></clipPath><linearGradient id="linear-gradient-6" x1="-147.04" y1="602.71" x2="-146.43" y2="602.71" gradientTransform="translate(-87746.69 -21172.69) rotate(-90) scale(146)" gradientUnits="userSpaceOnUse"><stop offset="0" stop-color="#e1282b"/><stop offset=".39" stop-color="#e3402a"/><stop offset=".7" stop-color="#e76226"/><stop offset="1" stop-color="#f19a0a"/></linearGradient><clipPath id="clippath-9"><path class="cls-1" d="M246.24,299.12c.42-.4,5.96-5.74,14.05-14.53-.27-.69-.55-1.41-.85-2.18-7.24,9.38-12.78,16.2-13.2,16.71"/></clipPath><linearGradient id="linear-gradient-7" x1="-147.04" y1="602.69" x2="-146.43" y2="602.69" gradientTransform="translate(-87737 -21175.01) rotate(-90) scale(146)" xlink:href="#linear-gradient-6"/><clipPath id="clippath-10"><path class="cls-1" d="M200.05,217.03c9.24,43.24,21.92,82.91,21.92,82.91h10s6.43-20.14,13.48-47.36c-8.03-14.99-19.13-32.92-34.05-51.77-4.28,5.44-8.04,10.87-11.35,16.23"/></clipPath><linearGradient id="linear-gradient-8" x1="-147.04" y1="602.75" x2="-146.43" y2="602.75" gradientTransform="translate(-87776.66 -21165.1) rotate(-90) scale(146)" xlink:href="#linear-gradient-6"/><clipPath id="clippath-11"><path class="cls-1" d="M181.98,257.56c10.1,15.01,20.76,26.94,35.32,42.04-3.4-3.88-16.54-26.73-29.96-57.59-2.2,5.4-3.96,10.61-5.37,15.55"/></clipPath><linearGradient id="linear-gradient-9" x1="-147.04" y1="602.87" x2="-146.43" y2="602.87" gradientTransform="translate(-87817.2 -21150.45) rotate(-90) scale(146)" xlink:href="#linear-gradient-6"/><clipPath id="clippath-12"><path class="cls-1" d="M179.33,268.24h0c15.25,18.25,27.75,30.27,28.38,30.88-.67-.83-14.44-17.75-27.32-35.52-.39,1.58-.75,3.13-1.06,4.63"/></clipPath><linearGradient id="linear-gradient-10" x1="-147.04" y1="602.91" x2="-146.43" y2="602.91" gradientTransform="translate(-87829.32 -21146.03) rotate(-90) scale(146)" xlink:href="#linear-gradient-6"/></defs><g class="cls-33"><path class="cls-32" d="M116.8,123.88c-4.11-1.87-7.66-3.31-10.56-4.4-.61-4.56-1.05-9.14-1.34-13.72-.22-3.78-.08-7.5.37-11.17,2.46.4,5.96,1.02,10.31,1.86-.43,5.19-.47,10.65,0,16.43.29,3.69.7,7.36,1.22,11M157.4,147.85c-10.38-7.62-20.13-13.52-28.6-18.05-1.72-10.56-2.45-21.01-1.8-30.97,7.84,1.73,17.09,3.96,27.28,6.8-.68,13.31.57,27.63,3.13,42.22M264.01,153.4c-.1,1.15-.23,2.32-.36,3.48-14.19,7.41-28.3,17.39-40.99,30.85-4.11,4.35-7.85,8.72-11.27,13.07-3.84-4.85-7.93-9.77-12.28-14.71-1.95-2.21-3.9-4.35-5.87-6.44-3.26-21.84-5.34-43.39-5.72-63.58,25.25,8.96,52.5,21.13,76.48,37.33h0Z"/><path class="cls-34" d="M119.9,75.23c-2.12,6.44-3.67,13.51-4.31,21.22-4.35-.84-7.85-1.46-10.31-1.86.28-2.3.69-4.59,1.21-6.83,3.09-3.33,7.57-7.73,13.41-12.53"/><path class="cls-3" d="M169.3,47.4c-7.47,13.7-13.45,32.15-14.96,56.78-.02.48-.05.97-.07,1.45-10.19-2.83-19.45-5.06-27.28-6.79.01-.33.04-.65.06-.98.97-12.91,4.78-24.75,10.55-35.27,8.91-5.51,19.47-10.85,31.71-15.18"/><path class="cls-13" d="M264.01,153.4c-23.98-16.21-51.24-28.37-76.48-37.33-.49-24.05,1.39-46.17,6.36-64.49.14-.5.27-1,.42-1.5,20.02,11.83,46.11,25.03,70.88,30.82,2.16,21.83,1.51,46.65-1.18,72.5h0Z"/><path class="cls-29" d="M349.03,105.76c-.61,10.16-2.06,20.22-4.32,30.27-2.86.11-6.14.3-9.8.61,1.61-7.75,2.78-15.68,3.43-23.76,2.17-27.18-6.61-47.89-16.77-62.35,2.98.85,5.8,1.68,8.43,2.49,11.41,14.47,20.22,33.05,19.02,52.73M323.65,137.96c-7.96,1.14-16.93,2.92-26.41,5.63,2.17-13.65,3.11-26.97,2.35-39.41-1.73-28.36-9.4-48.52-18.44-62.68,8.49,1.4,16.55,3.05,23.98,4.79,11.86,14,20.24,31.47,21.75,51.56.96,12.8-.42,26.45-3.24,40.1"/><path class="cls-12" d="M265.19,80.91c-24.77-5.8-50.86-18.99-70.88-30.82,1.06-3.66,2.24-7,3.54-10.03,3.67-.63,7.44-1.14,11.33-1.53,15.64-1.59,31.26-1.45,46.14-.22,1.75,3.88,3.36,8.28,4.72,13.28,2.43,8.94,4.12,18.78,5.15,29.33"/><path class="cls-2" d="M158.26,25.1c-.82.5-27.43,16.88-38.36,50.13-5.85,4.81-10.32,9.21-13.41,12.53,7.23-31.36,36.1-56.99,51.77-62.67M175.1,38.03c-2,2.84-3.95,5.96-5.8,9.37-12.24,4.33-22.79,9.67-31.7,15.18,6.82-12.51,16.39-23.16,27.19-31.61,2.56,1.83,6.07,4.25,10.31,7.06Z"/></g><g class="cls-19"><rect class="cls-14" x="223.62" y="-51.48" width="47.57" height="166.44" transform="translate(208.18 278.06) rotate(-88.26)"/></g><g class="cls-22"><polygon class="cls-31" points="226.97 346.61 245.34 346.61 252.14 316.95 201.8 316.95 208.6 346.61 226.97 346.61"/><path class="cls-18" d="M364.8,441l11.66.46,9.5-43.16,9.87,43.16h11.85l10.56-55.01h-9l-6.98,45.27h-1.65l-10.19-45.27h-8.26l-10.01,45.27h-1.28l-7.44-45.27h-9.73l11.11,54.55ZM341.83,419.24l-6.97-25.53h-1.93l-6.82,25.53h15.72ZM343.74,426.22h-19.49l-4.07,15.25h-9.64l17.91-55.01h11.2l18.18,55.01h-9.91l-4.17-15.25ZM276.28,412.35h11.66c5.02,0,9.09-4.07,9.09-9.09v-.46c0-5.02-4.07-9.09-9.09-9.09h-11.66v18.64ZM297.03,441.46l-12.64-22.22h-8.11v22.22h-9.73v-55.01h23.1c8.9,0,16.12,7.22,16.12,16.12v.55c0,7.26-4.8,13.39-11.39,15.41l13.04,22.93h-10.38ZM250.29,411.66v4.6c0,9.91-8.04,17.95-17.95,17.95h-5.56v-40.5h5.56c9.91,0,17.95,8.04,17.95,17.95M234.72,386.46h-17.04v55.01h17.04c13.46,0,24.38-10.92,24.38-24.38v-6.24c0-13.46-10.92-24.38-24.38-24.38M209.15,434.76h-1.29c-1.27,0-2.29-1.03-2.29-2.3v-45.92h-9.64v45.64c0,14.42,14.14,9.64,14.14,9.64l-.92-7.07ZM180.77,416.94h-19.38s1.74-11.02,9.69-11.02,9.69,7.07,9.69,11.02M152.86,420.85c0,14.74,9.37,19.88,17.17,21.44,7.8,1.56,17.08-4.04,17.08-4.04,0,0-1.84-3.3-3.58-5.6-1.1.73-7.81,5.42-14.69,2.11-6.89-3.31-7.62-11.66-7.62-11.66h27.09c1.74-18.46-8.08-23.97-16.53-23.97-7.99,0-18.92,6.98-18.92,21.72h0ZM150.19,407.49s.73-3.03,1.74-7.62c-9.09-4.32-17.54,8.72-17.54,8.72v-8.72h-7.71v41.41h8.81v-25.25c6.61-11.57,14.69-8.54,14.69-8.54ZM112.08,420.71c0,7.99-4.81,14.46-10.74,14.46s-10.74-6.48-10.74-14.46,4.81-14.46,10.74-14.46,10.74,6.47,10.74,14.46M101.06,399.13c-10.8,0-19.56,9.66-19.56,21.58s8.76,21.58,19.56,21.58,19.56-9.66,19.56-21.58-8.76-21.58-19.56-21.58M78.15,434.62c-4.57,5.08-10.83,8.22-17.72,8.22-14.02,0-25.39-12.95-25.39-28.93s11.37-28.92,25.39-28.92c6.23,0,11.93,2.55,16.35,6.8l-5.07,6.47c-2.89-3.11-6.63-5-10.73-5-9.1,0-16.48,9.25-16.48,20.66s7.38,20.66,16.48,20.66c4.45,0,8.49-2.22,11.45-5.82l5.72,5.87Z"/></g><g class="cls-20"><rect class="cls-11" x="106.98" y="123.49" width="102.18" height="140.39" transform="translate(-61.08 73.38) rotate(-22.02)"/></g><g class="cls-21"><rect class="cls-10" x="81.06" y="111.01" width="124.5" height="165.7" transform="translate(-62.22 67.87) rotate(-22.02)"/></g><g class="cls-27"><rect class="cls-9" x="186.9" y="177.62" width="30.84" height="41.46" transform="translate(-59.6 90.32) rotate(-22.02)"/></g><g class="cls-24"><path class="cls-30" d="M334.92,136.64c-4.67,22.69-12.91,43.71-21.66,61.69,1.77,1.78,3.5,3.55,5.17,5.3,12.47-23.19,21.34-45.38,26.29-67.61-2.86.11-6.14.29-9.8.61M297.24,143.58c-1.71,10.84-4.19,21.87-7.17,32.81,5.16,4.65,10.8,9.86,16.34,15.21,6.93-16.56,13.42-35.12,17.23-53.65-7.96,1.14-16.93,2.92-26.41,5.63"/></g><g class="cls-23"><rect class="cls-6" x="181.68" y="138.15" width="166.46" height="165.17" transform="translate(-76.78 267.08) rotate(-47.53)"/></g><g class="cls-26"><rect class="cls-7" x="230.37" y="266.24" width="33.13" height="36.5" transform="translate(-110.57 165.74) rotate(-30.67)"/></g><g class="cls-25"><rect class="cls-5" x="242.96" y="279.99" width="20.61" height="21.54" transform="translate(-112.88 169.84) rotate(-30.67)"/></g><g class="cls-16"><rect class="cls-4" x="177.94" y="196.16" width="89.62" height="108.43" transform="translate(-96.55 148.63) rotate(-30.67)"/></g><g class="cls-15"><rect class="cls-8" x="169.76" y="237.03" width="59.76" height="67.55" transform="translate(-110.2 139.7) rotate(-30.67)"/></g><g class="cls-17"><rect class="cls-28" x="172.26" y="258.85" width="42.53" height="45.03" transform="translate(-116.44 138.05) rotate(-30.67)"/></g></svg>